# xmcd
#
# Track frame offsets: 
#        150
#        17652
#        30656
#
# Disc length: 527 seconds
#
# Revision: 0
# Processed by: cddbd v1.5.1PL0 Copyright (c) Steve Scherf et al.
# Submitted via: ExactAudioCopy v0.95a5
#
DISCID=18020d03
DTITLE=Joy Division - Komakino
DYEAR=1980
DGENRE=New Wave
TTITLE0=Komakino (Britannia Row Studios London 18.-30.03.80)
TTITLE1=Incubation (Britannia Row Studios London 18.-30.03.80)
TTITLE2=As You Said (Britannia Row Studios London 18.-30.03.80)
EXTD=
EXTT0=
EXTT1=
EXTT2=
PLAYORDER=
